# xmcd
#
# Track frame offsets:
#	150
#	13735
#	30040
#	45322
#	61667
#	74902
#	92942
#	103760
#	117970
#	138490
#	150927
#	169565
#	180992
#	193802
#
# Disc length: 2740 seconds
#
# Revision: 1
# Processed by: cddbd v1.5.1PL0 Copyright (c) Steve Scherf et al.
# Submitted via: audiograbber 1.80
#
DISCID=ae0ab20e
DTITLE=Veteran Western - Za branou snu
DYEAR=1900
DGENRE=
TTITLE0=Lucie
TTITLE1=Klekani
TTITLE2=Cinska ctvrt
TTITLE3=Mississippi proud
TTITLE4=Jsem tvuj stin
TTITLE5=Duhovej orchestrion
TTITLE6=Dedictvi
TTITLE7=Pisnicka na pet tonu
TTITLE8=Tulacky psani
TTITLE9=Spina Gray
TTITLE10=Sedm zlutejch kaminku
TTITLE11=Ohni karu k pivovaru
TTITLE12=Porevolucni
TTITLE13=Za branou snu
EXTD=
EXTT0=
EXTT1=
EXTT2=
EXTT3=
EXTT4=
EXTT5=
EXTT6=
EXTT7=
EXTT8=
EXTT9=
EXTT10=
EXTT11=
EXTT12=
EXTT13=
PLAYORDER=
